General
Complete name : Margaret.2011.DVDRip.LATiNO.XviD.avi
Format : AVI
Format/Info : Audio Video Interleave
File size : 703 MiB
Duration : 2h 29mn
Overall bit rate : 655 Kbps

Video
ID : 0
Format : MPEG-4 Visual
Format profile : Advanced Simple@L5
Format settings, BVOP : 2
Format settings, QPel : No
Format settings, GMC : No warppoints
Format settings, Matrix : Default (H.263)
Codec ID : XVID
Codec ID/Hint : XviD
Duration : 2h 29mn
Bit rate : 518 Kbps
Width : 640 pixels
Height : 352 pixels
Display aspect ratio : 16:9
Frame rate : 23.976 fps
Color space : YUV
Chroma subsampling : 4:2:0
Bit depth : 8 bits
Scan type : Progressive
Compression mode : Lossy
Bits/(Pixel*Frame) : 0.096
Stream size : 556 MiB (79%)
Writing library : XviD 1.2.1 (UTC 2008-12-04)

Audio
ID : 1
Format : MPEG Audio
Format version : Version 1
Format profile : Layer 3
Mode : Joint stereo
Mode extension : MS Stereo
Codec ID : 55
Codec ID/Hint : MP3
Duration : 2h 29mn
Bit rate mode : Constant
Bit rate : 128 Kbps
Channel(s) : 2 channels
Sampling rate : 48.0 KHz
Compression mode : Lossy
Stream size : 137 MiB (20%)
Alignment : Aligned on interleaves
Interleave, duration : 42 ms (1.00 video frame)
Interleave, preload duration : 504 ms
Writing library : LAME3.99r
Encoding settings : -m j -V 4 -q 2 -lowpass 17 -b 128
 
http://www.imdb.com/title/tt0466893/

Fichas Técnica
TÍTULO ORIGINAL: Margaret
AÑO: 2011
DURACIÓN: 150 min.
PAÍS: USA
DIRECTOR: Kenneth Lonergan
GUIÓN: Kenneth Lonergan
FOTOGRAFÍA: Ryszard Lenczewski
REPARTO: Anna Paquin, Matt Damon, Mark Ruffalo, J. Smith-Cameron, Matthew Broderick, Jean Reno, Kieran Culkin, Allison Janney, Olivia Thirlby
PRODUCTORA: Fox Searchlight Pictures
GÉNERO: Drama | Cine independiente USA


Sinopsis
Lisa es una estudiante de 17 años de la ciudad de Nueva York que está convencida de haber provocado involuntariamente un accidente de tráfico en el que una mujer ha fallecido. Todos sus intentos por arreglar la situación son en vano. Completamente decepcionada, Lisa comienza a tratar con crueldad a su familia, amigos, profesores y, sobre todo, a sí misma. Y es que, inesperadamente, Lisa debe enfrentarse a una verdad esencial: sus ideales de juventud no se corresponden con las realidades y responsabilidades que conlleva el mundo adulto.

